<?xml version="1.0" encoding="UTF-8" standalone="no"?>
<!-- Created with Inkscape (http://www.inkscape.org/) -->

<svg
   xmlns:dc="http://purl.org/dc/elements/1.1/"
   xmlns:cc="http://creativecommons.org/ns#"
   xmlns:rdf="http://www.w3.org/1999/02/22-rdf-syntax-ns#"
   xmlns:svg="http://www.w3.org/2000/svg"
   xmlns="http://www.w3.org/2000/svg"
   xmlns:sodipodi="http://sodipodi.sourceforge.net/DTD/sodipodi-0.dtd"
   xmlns:inkscape="http://www.inkscape.org/namespaces/inkscape"
   width="200mm"
   height="237mm"
   id="svg2827"
   version="1.1"
   inkscape:version="0.47 r22583"
   sodipodi:docname="Neues Dokument 2">

  <defs
     id="defs3">
    <inkscape:perspective
       sodipodi:type="inkscape:persp3d"
       inkscape:vp_x="0 : 526.18109 : 1"
       inkscape:vp_y="0 : 1000 : 0"
       inkscape:vp_z="744.09448 : 526.18109 : 1"
       inkscape:persp3d-origin="372.04724 : 350.78739 : 1"
       id="perspective2833" />
    <inkscape:perspective
       id="perspective2822"
       inkscape:persp3d-origin="0.5 : 0.33333333 : 1"
       inkscape:vp_z="1 : 0.5 : 1"
       inkscape:vp_y="0 : 1000 : 0"
       inkscape:vp_x="0 : 0.5 : 1"
       sodipodi:type="inkscape:persp3d" />
  </defs>
  <sodipodi:namedview
     inkscape:document-units="mm"
     id="base"
     pagecolor="#ffffff"
     bordercolor="#666666"
     borderopacity="1.0"
     inkscape:pageopacity="0.0"
     inkscape:pageshadow="2"
     inkscape:zoom="0.35"
     inkscape:cx="350"
     inkscape:cy="520"
     inkscape:current-layer="layer1"
     showgrid="false"
     inkscape:window-width="566"
     inkscape:window-height="488"
     inkscape:window-x="22"
     inkscape:window-y="66"
     inkscape:window-maximized="0" />
  <metadata
     id="metadata4">
    <rdf:RDF>
      <cc:Work
         rdf:about="">
        <dc:format>image/svg+xml</dc:format>
        <dc:type
           rdf:resource="http://purl.org/dc/dcmitype/StillImage" />
        <dc:title></dc:title>
      </cc:Work>
    </rdf:RDF>
  </metadata>
  <g
     inkscape:label="Layer 1"
     inkscape:groupmode="layer"
     id="layer1">
    <path
       style="fill: rgb(109, 0, 0); opacity: 0.3"
       d="m 583.99651,798.0284 c -25.65649,-28.81603 -47.3494,-52.39276 -47.3494,-52.39276 0,0 -9.44519,4.03995 -20.13222,8.97768 -83.96545,38.79442 -181.56528,26.05144 -260.24108,-33.97806 l -22.53068,-17.19085 -61.53698,51.55957 c -33.97426,28.46578 -63.66704,49.24432 -63.66704,49.24432 0,0 -16.464059,-19.30682 -33.983423,-40.07429 C 49.109174,734.00967 46.090873,723.3245 46.090873,723.3245 c 0,0 37.559806,-31.72642 79.324637,-66.72593 41.76483,-34.9995 83.87084,-69.19882 83.87084,-69.19882 0,0 3.3414,-0.0131 25.60986,19.80826 13.5345,12.04778 32.14436,26.34614 41.35525,31.77416 47.61931,28.06214 109.48892,39.67224 157.3537,29.52812 16.84832,-3.57072 26.66706,-8.82028 26.66706,-8.82028 0,0 -30.67808,-35.25646 -72.29083,-79.77499 -40.66934,-43.50924 -76.60812,-79.82482 -76.60812,-79.82482 0,0 -17.25503,11.38876 -35.08871,26.18485 -17.83369,14.79608 -32.98524,26.90197 -32.98524,26.90197 0,0 -62.25044,-77.41655 -62.25044,-77.41655 0,0 37.80825,-31.42522 81.60651,-67.68123 76.01776,-62.92719 80.78615,-66.44119 80.78615,-66.44119 0,0 24.44565,4.63537 35.96698,4.58242 22.09543,-0.10159 58.11522,-20.49603 58.11522,-20.49603 0,0 -2.65344,-4.46143 26.5804,27.49501 l 8.71002,9.5212 -40.15661,33.42792 c -22.08613,18.38535 -41.80067,34.93464 -43.8101,36.77619 -3.05637,2.80102 7.60466,15.46768 65.22965,77.50115 37.88575,40.78411 72.86365,78.27704 77.72869,83.31762 l 8.84556,9.1647 5.0604,-6.54622 c 8.42616,-10.90017 22.79823,-42.21377 27.23599,-59.34125 20.99606,-81.03409 -13.03063,-182.56164 -87.49059,-261.05116 -12.24142,-12.90389 -29.28558,-29.32562 -37.87591,-36.49275 -17.02274,-14.2025 -15.40274,-14.33468 16.23638,-1.32482 41.29474,16.98022 86.52241,49.65385 116.06664,83.84953 87.04445,100.74882 105.84297,237.94514 46.72909,341.04061 -13.00581,22.68231 -10.88512,25.087 -10.88512,25.087 0,0 23.24541,26.71927 42.50361,48.32177 19.25817,21.6025 44.24841,48.2858 44.24841,48.2858 0,0 0.45354,2.17882 -33.62043,33.19223 -18.80313,17.11426 -36.20134,31.7945 -36.20134,31.7945 0,0 -23.00548,-22.89906 -48.66197,-51.71507 z M 131.96172,362.39158 c 0,-0.68989 4.16265,-15.71654 9.25032,-33.39249 5.08769,-17.67597 8.69695,-33.58023 8.0206,-35.34279 -0.67636,-1.76255 -12.70811,-12.4339 -26.73719,-23.71407 l -25.507467,-20.50943 35.601617,-0.72713 35.6016,-0.7271 12.50107,-32.00396 c 6.87561,-17.60216 13.19629,-32.86667 14.04597,-33.92113 0.8497,-1.05447 7.39855,13.37535 14.55304,32.06627 l 13.00816,33.98348 34.69492,0.0105 c 19.08221,0.005 34.63986,0.8939 34.57259,1.97402 -0.0673,1.08013 -11.93474,10.80125 -26.37212,21.6025 -14.43738,10.80125 -26.72575,20.36306 -27.3075,21.24848 -0.58175,0.88544 4.14134,17.11083 10.49575,36.05645 6.35441,18.94563 10.15504,33.64871 8.44582,32.67353 -1.70919,-0.97525 -15.57828,-9.83615 -30.82019,-19.69097 -15.24192,-9.85483 -28.97472,-17.91785 -30.51737,-17.91785 -1.54263,0 -14.99496,8.0151 -29.89409,17.81133 -32.99411,21.69375 -33.63553,22.08508 -33.63553,20.52064 l 0,-2.6e-4 z"
       id="path8476"
       sodipodi:nodetypes="ccsccccscscssscscsccscsccccsscccsssssscscscccsscccccscccsssssssscc" />
  </g>
</svg>
